<svg width="17.592651" height="22.925537" viewBox="0 0 17.5927 22.9255" fill="none" xmlns="http://www.w3.org/2000/svg" xmlns:xlink="http://www.w3.org/1999/xlink">
	<desc>
			Created with Pixso.
	</desc>
	<defs/>
	<path id="Vector" d="M2.1 7.76C2.44 7.39 2.88 7.19 3.33 7.19L14.25 7.19C14.71 7.19 15.15 7.39 15.48 7.76C15.82 8.12 16.02 8.62 16.06 9.15L16.79 19.82C16.81 20.11 16.77 20.41 16.69 20.69C16.61 20.97 16.48 21.22 16.31 21.44C16.14 21.65 15.94 21.83 15.71 21.95C15.48 22.06 15.23 22.12 14.98 22.12L2.6 22.12C2.35 22.12 2.1 22.06 1.88 21.95C1.65 21.83 1.44 21.65 1.27 21.44C1.1 21.22 0.97 20.97 0.89 20.69C0.81 20.41 0.78 20.11 0.8 19.82L1.52 9.15C1.56 8.62 1.77 8.12 2.1 7.76Z" stroke="#000000" stroke-opacity="1.000000" stroke-width="1.592189" stroke-linejoin="round"/>
	<path id="Vector" d="M12.41 10.39L12.41 5.06C12.41 3.93 12.03 2.84 11.35 2.04C10.67 1.24 9.75 0.79 8.79 0.79C7.83 0.79 6.91 1.24 6.23 2.04C5.55 2.84 5.17 3.93 5.17 5.06L5.17 10.39" stroke="#000000" stroke-opacity="1.000000" stroke-width="1.592189" stroke-linejoin="round" stroke-linecap="round"/>
</svg>
